<svg width="92" height="72" version="1.1" xmlns="http://www.w3.org/2000/svg"><path fill="rgb(248,249,250)" stroke="rgb(248,249,250)" stroke-width="1" opacity="1" d="M 33.5 0 Q 35.8 -0.8 35 1.5 L 33.5 0 Z "></path><path fill="rgb(248,249,250)" stroke="rgb(248,249,250)" stroke-width="1" opacity="1" d="M 45.5 0 L 48 0.5 L 45.5 1 L 45.5 0 Z "></path><path fill="rgb(248,249,250)" stroke="rgb(248,249,250)" stroke-width="1" opacity="1" d="M 14.5 1 L 15.5 3 L 14.5 1 Z "></path><path fill="rgb(248,249,250)" stroke="rgb(248,249,250)" stroke-width="1" opacity="1" d="M 23.5 1 L 23 2.5 L 24 4.5 L 22 5.5 Q 21.3 1.8 23.5 1 Z "></path><path fill="rgb(248,249,250)" stroke="rgb(248,249,250)" stroke-width="1" opacity="1" d="M 40 1 Q 43 0 42 3 Q 39 4 40 1 Z "></path><path fill="rgb(248,249,250)" stroke="rgb(248,249,250)" stroke-width="1" opacity="1" d="M 50.5 1 L 52.5 4 Q 48.1 5.1 50.5 1 Z "></path><path fill="rgb(248,249,250)" stroke="rgb(248,249,250)" stroke-width="1" opacity="1" d="M 18.5 2 L 20 4.5 L 18 3.5 L 18.5 2 Z "></path><path fill="rgb(248,249,250)" stroke="rgb(248,249,250)" stroke-width="1" opacity="1" d="M 55.5 3 L 56 5 L 54 4.5 L 55.5 3 Z "></path><path fill="rgb(248,249,250)" stroke="rgb(248,249,250)" stroke-width="1" opacity="1" d="M 35.5 6 L 36 9.5 L 35 9.5 L 35.5 6 Z "></path><path fill="rgb(248,249,250)" stroke="rgb(248,249,250)" stroke-width="1" opacity="1" d="M 53.5 6 Q 56.3 7.2 54 8.5 L 53.5 16 L 53 8.5 L 53.5 6 Z "></path><path fill="rgb(248,249,250)" stroke="rgb(248,249,250)" stroke-width="1" opacity="1" d="M 32.5 8 L 33 10.5 L 32 10.5 L 32.5 8 Z "></path><path fill="rgb(248,249,250)" stroke="rgb(248,249,250)" stroke-width="1" opacity="1" d="M 50.5 8 L 51 15.5 L 50 15.5 L 50.5 8 Z "></path><path fill="rgb(248,249,250)" stroke="rgb(248,249,250)" stroke-width="1" opacity="1" d="M 22.5 12 Q 25.1 11.2 24 14.5 L 23 14.5 L 22.5 12 Z "></path><path fill="rgb(248,249,250)" stroke="rgb(248,249,250)" stroke-width="1" opacity="1" d="M 66.5 16 L 68 16.5 L 66 17.5 L 68 18.5 L 64 19 Q 62.9 16.3 65.5 17 L 66.5 16 Z "></path><path fill="rgb(248,249,250)" stroke="rgb(248,249,250)" stroke-width="1" opacity="1" d="M 24 17 Q 26.7 15.9 26 18.5 L 26.5 20 L 24 18.5 L 24 17 Z "></path><path fill="rgb(248,249,250)" stroke="rgb(248,249,250)" stroke-width="1" opacity="1" d="M 28.5 17 L 30 19.5 L 28 18.5 L 28.5 17 Z "></path><path fill="rgb(248,249,250)" stroke="rgb(248,249,250)" stroke-width="1" opacity="1" d="M 33.5 20 L 33 21.5 L 32.5 23 L 32 21.5 L 33.5 20 Z "></path><path fill="rgb(248,249,250)" stroke="rgb(248,249,250)" stroke-width="1" opacity="1" d="M 64.5 20 L 64 21.5 Q 65.3 26.1 59.5 24 L 61.5 21 L 64.5 20 Z "></path><path fill="rgb(248,249,250)" stroke="rgb(248,249,250)" stroke-width="1" opacity="1" d="M 71.5 20 L 70.5 22 L 71.5 20 Z "></path><path fill="rgb(248,249,250)" stroke="rgb(248,249,250)" stroke-width="1" opacity="1" d="M 30 25 L 32 25.5 L 30.5 28 L 30 25 Z "></path><path fill="rgb(248,249,250)" stroke="rgb(248,249,250)" stroke-width="1" opacity="1" d="M 50.5 28 Q 50.3 32.3 53 33.5 L 50 31.5 L 50.5 28 Z "></path><path fill="rgb(248,249,250)" stroke="rgb(248,249,250)" stroke-width="1" opacity="1" d="M 59.5 31 L 63 32.5 L 61.5 32 L 59 32.5 Q 61.3 33.8 58.5 35 L 57 34.5 L 59 33.5 Q 56.8 32.3 59.5 31 Z "></path><path fill="rgb(248,249,250)" stroke="rgb(248,249,250)" stroke-width="1" opacity="1" d="M 71.5 34 L 72 37 L 68.5 39 L 70 36.5 L 71.5 34 Z "></path><path fill="rgb(248,249,250)" stroke="rgb(248,249,250)" stroke-width="1" opacity="1" d="M 56 36 L 58 36.5 L 57 39.5 L 54.5 43 L 53.5 41 L 55 41.5 L 54 38 Q 57 39 56 36 Z "></path><path fill="rgb(248,249,250)" stroke="rgb(248,249,250)" stroke-width="1" opacity="1" d="M 60.5 43 L 59.5 45 L 60.5 43 Z "></path><path fill="rgb(248,249,250)" stroke="rgb(248,249,250)" stroke-width="1" opacity="1" d="M 38.5 44 L 37 46.5 L 35.5 49 L 33 48.5 L 36 48 Q 34.5 44.2 37.5 45 L 38.5 44 Z "></path><path fill="rgb(248,249,250)" stroke="rgb(248,249,250)" stroke-width="1" opacity="1" d="M 61.5 45 L 62 47 L 60 46.5 L 61.5 45 Z "></path><path fill="rgb(248,249,250)" stroke="rgb(248,249,250)" stroke-width="1" opacity="1" d="M 63.5 47 L 64.5 49 L 58 48.5 L 63.5 47 Z "></path><path fill="rgb(248,249,250)" stroke="rgb(248,249,250)" stroke-width="1" opacity="1" d="M 28.5 49 L 31 50.5 L 29.5 51 L 28.5 49 Z "></path><path fill="rgb(248,249,250)" stroke="rgb(248,249,250)" stroke-width="1" opacity="1" d="M 24.5 50 L 26 54 L 23 52.5 L 24.5 50 Z "></path><path fill="rgb(248,249,250)" stroke="rgb(248,249,250)" stroke-width="1" opacity="1" d="M 56.5 50 L 57 55.5 L 54 57.5 Q 57.3 55.8 56.5 50 Z "></path><path fill="rgb(248,249,250)" stroke="rgb(248,249,250)" stroke-width="1" opacity="1" d="M 64.5 50 L 63.5 52 L 60 53.5 L 61 56.5 L 61 58.5 L 60.5 60 L 60 58 L 57 57.5 L 60 56.5 L 59 52.5 L 64.5 50 Z "></path><path fill="rgb(248,249,250)" stroke="rgb(248,249,250)" stroke-width="1" opacity="1" d="M 80.5 50 L 84 50.5 L 80.5 51 L 80.5 50 Z "></path><path fill="rgb(248,249,250)" stroke="rgb(248,249,250)" stroke-width="1" opacity="1" d="M 86.5 50 L 87.5 52 L 86.5 50 Z "></path><path fill="rgb(248,249,250)" stroke="rgb(248,249,250)" stroke-width="1" opacity="1" d="M 42.5 51 L 43 53 L 40 52.5 L 42.5 51 Z "></path><path fill="rgb(248,249,250)" stroke="rgb(248,249,250)" stroke-width="1" opacity="1" d="M 52.5 51 L 55 51.5 Q 53 56 51 52.5 L 52.5 51 Z "></path><path fill="rgb(248,249,250)" stroke="rgb(248,249,250)" stroke-width="1" opacity="1" d="M 68.5 51 L 73.5 52 L 75 51.5 L 72.5 53 L 70 52 L 68.5 55 L 64 54.5 L 69 53.5 L 67 52.5 L 68.5 51 Z "></path><path fill="rgb(248,249,250)" stroke="rgb(248,249,250)" stroke-width="1" opacity="1" d="M 77.5 52 L 80 52.5 L 76.5 54 L 77.5 52 Z "></path><path fill="rgb(248,249,250)" stroke="rgb(248,249,250)" stroke-width="1" opacity="1" d="M 10.5 55 L 13 56.5 L 11.5 56 L 10.5 55 Z "></path><path fill="rgb(248,249,250)" stroke="rgb(248,249,250)" stroke-width="1" opacity="1" d="M 70.5 56 L 73 56.5 Q 70.9 59.8 70.5 56 Z "></path><path fill="rgb(248,249,250)" stroke="rgb(248,249,250)" stroke-width="1" opacity="1" d="M 44.5 58 L 44.5 61 L 42 59.5 L 44.5 58 Z "></path><path fill="rgb(248,249,250)" stroke="rgb(248,249,250)" stroke-width="1" opacity="1" d="M 73.5 58 L 71.5 62 Q 74.1 61.3 73 64 Q 70.3 65.1 71 62.5 L 70.5 59 Q 72 61.5 73.5 58 Z "></path><path fill="rgb(248,249,250)" stroke="rgb(248,249,250)" stroke-width="1" opacity="1" d="M 75.5 60 L 76.5 63 L 78 62.5 Q 76 66 74 61.5 L 75.5 60 Z "></path><path fill="rgb(248,249,250)" stroke="rgb(248,249,250)" stroke-width="1" opacity="1" d="M 31.5 61 L 34 62.5 L 32.5 63 L 31.5 61 Z "></path><path fill="rgb(248,249,250)" stroke="rgb(248,249,250)" stroke-width="1" opacity="1" d="M 60.5 62 L 59.5 64 L 60.5 62 Z "></path><path fill="rgb(248,249,250)" stroke="rgb(248,249,250)" stroke-width="1" opacity="1" d="M 66.5 63 L 70 63.5 L 66.5 64 L 66.5 63 Z "></path><path fill="rgb(252,252,252)" stroke="rgb(252,252,252)" stroke-width="1" opacity="1" d="M 7 0 L 9 0.5 L 7 8.5 L 7 39.5 L 9 47.5 L 8 49.5 L 12 51.5 L 9 52.5 L 9.5 54 L 8 53.5 L 7.5 72 L 7 40 L 5 39.5 L 5 8 L 7 7.5 L 7 0 Z "></path><path fill="rgb(252,252,252)" stroke="rgb(252,252,252)" stroke-width="1" opacity="1" d="M 14.5 0 Q 19 2 15.5 4 L 14.5 0 Z "></path><path fill="rgb(252,252,252)" stroke="rgb(252,252,252)" stroke-width="1" opacity="1" d="M 35.5 0 L 36 2 L 39.5 0 L 40 1.5 L 36 4.5 L 35.5 6 L 33 1.5 L 35 1.5 L 35.5 0 Z "></path><path fill="rgb(252,252,252)" stroke="rgb(252,252,252)" stroke-width="1" opacity="1" d="M 42.5 1 L 44 3.5 L 42 4 L 42.5 1 Z "></path><path fill="rgb(252,252,252)" stroke="rgb(252,252,252)" stroke-width="1" opacity="1" d="M 23.5 5 L 22.5 7 L 23.5 5 Z "></path><path fill="rgb(252,252,252)" stroke="rgb(252,252,252)" stroke-width="1" opacity="1" d="M 23.5 8 L 22.5 10 L 23.5 8 Z "></path><path fill="rgb(252,252,252)" stroke="rgb(252,252,252)" stroke-width="1" opacity="1" d="M 55.5 8 L 56 16 L 61 16.5 L 56 18 L 55.5 16 L 54.5 24 L 54 16.5 L 55.5 8 Z "></path><path fill="rgb(252,252,252)" stroke="rgb(252,252,252)" stroke-width="1" opacity="1" d="M 34.5 10 L 37 11.5 L 35 11.5 Q 35.7 14.1 33 13 L 34.5 10 Z "></path><path fill="rgb(252,252,252)" stroke="rgb(252,252,252)" stroke-width="1" opacity="1" d="M 34.5 14 L 35.5 16 Q 32.7 16.7 34.5 14 Z "></path><path fill="rgb(252,252,252)" stroke="rgb(252,252,252)" stroke-width="1" opacity="1" d="M 52.5 16 L 54 26.5 L 52 27.5 L 53 25.5 L 52 24.5 L 52.5 16 Z "></path><path fill="rgb(252,252,252)" stroke="rgb(252,252,252)" stroke-width="1" opacity="1" d="M 61.5 20 L 64 20.5 L 56.5 25 L 59.5 21 L 61.5 20 Z "></path><path fill="rgb(252,252,252)" stroke="rgb(252,252,252)" stroke-width="1" opacity="1" d="M 31.5 23 L 29.5 26 L 31.5 23 Z "></path><path fill="rgb(252,252,252)" stroke="rgb(252,252,252)" stroke-width="1" opacity="1" d="M 80.5 23 L 88 23.5 L 80.5 24 L 80.5 23 Z "></path><path fill="rgb(252,252,252)" stroke="rgb(252,252,252)" stroke-width="1" opacity="1" d="M 32.5 48 Q 35.5 49.5 32.5 51 L 32.5 48 Z "></path><path fill="rgb(252,252,252)" stroke="rgb(252,252,252)" stroke-width="1" opacity="1" d="M 65.5 48 L 66 50 L 64 49.5 L 65.5 48 Z "></path><path fill="rgb(252,252,252)" stroke="rgb(252,252,252)" stroke-width="1" opacity="1" d="M 68.5 48 L 72 49.5 L 70.5 49 Q 67.5 49.5 68.5 48 Z "></path><path fill="rgb(252,252,252)" stroke="rgb(252,252,252)" stroke-width="1" opacity="1" d="M 57 49 L 59 49.5 L 57 50.5 L 57 49 Z "></path><path fill="rgb(252,252,252)" stroke="rgb(252,252,252)" stroke-width="1" opacity="1" d="M 76.5 50 L 77.5 52 Q 76 49.5 74.5 53 L 73 51.5 Q 74.8 53.1 76.5 50 Z "></path><path fill="rgb(252,252,252)" stroke="rgb(252,252,252)" stroke-width="1" opacity="1" d="M 27.5 51 Q 29.8 50.3 29 52.5 L 27.5 51 Z "></path><path fill="rgb(252,252,252)" stroke="rgb(252,252,252)" stroke-width="1" opacity="1" d="M 67.5 51 L 66.5 53 L 67.5 51 Z "></path><path fill="rgb(252,252,252)" stroke="rgb(252,252,252)" stroke-width="1" opacity="1" d="M 83.5 52 L 84.5 54 L 83.5 52 Z "></path><path fill="rgb(252,252,252)" stroke="rgb(252,252,252)" stroke-width="1" opacity="1" d="M 77.5 53 L 76.5 56 L 78 56.5 L 76.5 57 L 74 56 L 74.5 54 Q 76 56.5 77.5 53 Z "></path><path fill="rgb(252,252,252)" stroke="rgb(252,252,252)" stroke-width="1" opacity="1" d="M 9.5 55 L 11 57.5 L 10 57.5 L 9.5 55 Z "></path><path fill="rgb(252,252,252)" stroke="rgb(252,252,252)" stroke-width="1" opacity="1" d="M 73.5 57 L 75 57.5 L 72 59.5 L 72.5 61 Q 69 59 73.5 57 Z "></path><path fill="rgb(252,252,252)" stroke="rgb(252,252,252)" stroke-width="1" opacity="1" d="M 9.5 59 L 12 63.5 L 11 63.5 L 9.5 59 Z "></path><path fill="rgb(252,252,252)" stroke="rgb(252,252,252)" stroke-width="1" opacity="1" d="M 42 61 L 44 61.5 L 43.5 64 L 42 61 Z "></path><path fill="rgb(252,252,252)" stroke="rgb(252,252,252)" stroke-width="1" opacity="1" d="M 73.5 62 L 76 63.5 L 74.5 63 L 73.5 62 Z "></path><path fill="rgb(253,253,253)" stroke="rgb(253,253,253)" stroke-width="1" opacity="1" d="M 5 0 L 7 0.5 L 7 8 L 5 7.5 L 5 0 Z "></path><path fill="rgb(253,253,253)" stroke="rgb(253,253,253)" stroke-width="1" opacity="1" d="M 24 0 L 31.5 0 L 32 2 L 33.5 2 L 33.5 3 L 32 3.5 L 32 16 L 28.5 16 L 26.5 16 L 24 15.5 L 24 0 Z "></path><path fill="rgb(253,253,253)" stroke="rgb(253,253,253)" stroke-width="1" opacity="1" d="M 38.5 0 L 37.5 2 L 38.5 0 Z "></path><path fill="rgb(253,253,253)" stroke="rgb(253,253,253)" stroke-width="1" opacity="1" d="M 56 0 L 88 0 L 88 15.5 L 91 16 L 91 24 L 88 24.5 L 88 47.5 Q 86.8 50.3 85.5 48 L 72.5 48 L 71.5 49 L 70.5 48 L 64 48 L 64 40.5 L 65.5 39 Q 66.8 41.2 71.5 40 L 72 37.5 L 71.5 34 L 70 34.5 L 72 31.5 L 72 29.5 L 72 16 L 64 16 Q 62.5 19.7 65.5 19 L 65.5 20 Q 58.1 19.1 56.5 24 L 56 22 L 60 19.5 L 56 18.5 L 61 16.5 L 56 16 L 56 7.5 L 54 5.5 L 56 5.5 L 56 0 Z M 80 16 L 80 21 L 88 21 L 88 16 L 80 16 Z M 81 23 L 81 24 L 88 24 L 81 23 Z "></path><path fill="rgb(253,253,253)" stroke="rgb(253,253,253)" stroke-width="1" opacity="1" d="M 13.5 1 Q 16.5 2.5 13.5 4 L 13.5 1 Z "></path><path fill="rgb(253,253,253)" stroke="rgb(253,253,253)" stroke-width="1" opacity="1" d="M 37.5 3 L 36.5 5 L 37.5 3 Z "></path><path fill="rgb(253,253,253)" stroke="rgb(253,253,253)" stroke-width="1" opacity="1" d="M 39.5 4 L 38.5 6 L 39.5 4 Z "></path><path fill="rgb(253,253,253)" stroke="rgb(253,253,253)" stroke-width="1" opacity="1" d="M 21.5 6 L 22.5 8 L 21.5 6 Z "></path><path fill="rgb(253,253,253)" stroke="rgb(253,253,253)" stroke-width="1" opacity="1" d="M 52.5 8 L 53 15.5 L 52 16.5 L 52 24 L 50 23.5 L 50 16 L 52 15.5 L 52.5 8 Z "></path><path fill="rgb(253,253,253)" stroke="rgb(253,253,253)" stroke-width="1" opacity="1" d="M 54.5 24 L 55.5 26 L 54.5 24 Z "></path><path fill="rgb(253,253,253)" stroke="rgb(253,253,253)" stroke-width="1" opacity="1" d="M 5 40 L 7 40.5 L 7 72 L 5 71.5 L 5 40 Z "></path><path fill="rgb(253,253,253)" stroke="rgb(253,253,253)" stroke-width="1" opacity="1" d="M 59.5 46 L 60.5 48 L 59.5 46 Z "></path><path fill="rgb(253,253,253)" stroke="rgb(253,253,253)" stroke-width="1" opacity="1" d="M 57.5 48 L 56.5 50 L 57.5 48 Z "></path><path fill="rgb(253,253,253)" stroke="rgb(253,253,253)" stroke-width="1" opacity="1" d="M 61.5 52 L 60.5 54 L 61.5 52 Z "></path><path fill="rgb(253,253,253)" stroke="rgb(253,253,253)" stroke-width="1" opacity="1" d="M 9.5 56 L 10 58.5 L 9 58.5 L 9.5 56 Z "></path><path fill="rgb(253,253,253)" stroke="rgb(253,253,253)" stroke-width="1" opacity="1" d="M 8.5 60 L 12 61.5 L 10 61.5 L 10.5 64 L 31 64 L 31.5 62 L 32 64 L 39.5 64 L 40.5 63 L 41.5 64 L 57.5 64 L 57.5 62 L 59.5 64 L 72.5 64 L 74.5 64 L 88 64 L 88 72 L 8.5 72 L 8 71.5 L 8 64.5 L 9 61.5 L 8.5 60 Z "></path><path fill="rgb(101,98,166)" stroke="rgb(101,98,166)" stroke-width="1" opacity="1" d="M 11.5 5 L 15 6 L 26 31.5 L 25.5 33 Q 27.8 32.3 27 34.5 Q 28.3 37.3 29.5 35 Q 31.8 35.8 31 33.5 L 30.5 32 L 32 31.5 L 31 29.5 L 33 29.5 L 32 26.5 L 38.5 12 L 40 12.5 L 39 10.5 L 40 6 L 47 7 L 47 40.5 L 43.5 44 L 42 43.5 L 41.5 45 Q 38.8 43.8 41 42.5 L 42 40.5 L 40 29 Q 37 27.8 38 31.5 L 33 44.5 L 29.5 48 L 27.5 48 L 24 44.5 L 25 42.5 L 23 42 L 20 33.5 L 21 30.5 L 20 30.5 L 19.5 32 L 18 29.5 Q 20.5 28 17 26.5 L 15.5 24 L 15 47 L 10 48 L 9 45.5 L 9 7.5 L 11.5 5 Z M 27 35 L 26 38 L 27 38 L 27 35 Z "></path><path fill="rgb(101,98,166)" stroke="rgb(101,98,166)" stroke-width="1" opacity="1" d="M 80.5 56 L 79.5 58 L 80.5 56 Z "></path><path fill="rgb(101,98,166)" stroke="rgb(101,98,166)" stroke-width="1" opacity="1" d="M 45.5 58 L 49 60.5 L 46 60.5 L 46.5 59 L 45.5 58 Z "></path><path fill="rgb(254,254,254)" stroke="rgb(254,254,254)" stroke-width="1" opacity="1" d="M 4.5 0 L 5 71.5 L 4 71.5 L 4.5 0 Z "></path><path fill="rgb(254,254,254)" stroke="rgb(254,254,254)" stroke-width="1" opacity="1" d="M 88 0 L 91 0.5 L 91 15.5 Q 93.8 17.2 92 23.5 L 91 24.5 L 91 72 L 88 71.5 L 88 24 L 91 24 L 91 16 L 88 15.5 L 88 0 Z "></path><path fill="rgb(254,254,254)" stroke="rgb(254,254,254)" stroke-width="1" opacity="1" d="M 33 3 L 35 3.5 L 34.5 6 Q 31.5 6.7 33 3 Z "></path><path fill="rgb(254,254,254)" stroke="rgb(254,254,254)" stroke-width="1" opacity="1" d="M 44.5 3 L 48 3.5 L 44.5 4 L 44.5 3 Z "></path><path fill="rgb(254,254,254)" stroke="rgb(254,254,254)" stroke-width="1" opacity="1" d="M 53.5 4 L 52.5 6 L 53.5 4 Z "></path><path fill="rgb(254,254,254)" stroke="rgb(254,254,254)" stroke-width="1" opacity="1" d="M 36.5 6 Q 39.3 7.2 37 8.5 L 36.5 10 L 36 8.5 L 36.5 6 Z "></path><path fill="rgb(254,254,254)" stroke="rgb(254,254,254)" stroke-width="1" opacity="1" d="M 7.5 8 L 8 39.5 L 7 39.5 L 7.5 8 Z "></path><path fill="rgb(254,254,254)" stroke="rgb(254,254,254)" stroke-width="1" opacity="1" d="M 53.5 16 L 54 23.5 L 53 23.5 L 53.5 16 Z "></path><path fill="rgb(254,254,254)" stroke="rgb(254,254,254)" stroke-width="1" opacity="1" d="M 55.5 16 L 56 21 L 58 20.5 L 57.5 19 L 60 19.5 L 56 22 L 55.5 24 L 55.5 16 Z "></path><path fill="rgb(254,254,254)" stroke="rgb(254,254,254)" stroke-width="1" opacity="1" d="M 80.5 20 L 88 20.5 L 80.5 21 L 80.5 20 Z "></path><path fill="rgb(254,254,254)" stroke="rgb(254,254,254)" stroke-width="1" opacity="1" d="M 28.5 23 Q 30.8 22.3 30 24.5 L 28.5 23 Z "></path><path fill="rgb(254,254,254)" stroke="rgb(254,254,254)" stroke-width="1" opacity="1" d="M 62.5 45 L 63.5 47 Q 60.7 47.7 62.5 45 Z "></path><path fill="rgb(254,254,254)" stroke="rgb(254,254,254)" stroke-width="1" opacity="1" d="M 85.5 48 L 84.5 50 L 85.5 48 Z "></path><path fill="rgb(254,254,254)" stroke="rgb(254,254,254)" stroke-width="1" opacity="1" d="M 22.5 49 L 23.5 51 L 22.5 49 Z "></path><path fill="rgb(254,254,254)" stroke="rgb(254,254,254)" stroke-width="1" opacity="1" d="M 61 49 L 64 50.5 L 61 50.5 L 61 49 Z "></path><path fill="rgb(254,254,254)" stroke="rgb(254,254,254)" stroke-width="1" opacity="1" d="M 76.5 49 L 79 49.5 L 76.5 50 L 76.5 49 Z "></path><path fill="rgb(254,254,254)" stroke="rgb(254,254,254)" stroke-width="1" opacity="1" d="M 10.5 53 L 11.5 55 L 10.5 53 Z "></path><path fill="rgb(254,254,254)" stroke="rgb(254,254,254)" stroke-width="1" opacity="1" d="M 57 53 L 59 53.5 L 58 54.5 L 59.5 57 L 57 56.5 L 57 54.5 L 57 53 Z "></path><path fill="rgb(254,254,254)" stroke="rgb(254,254,254)" stroke-width="1" opacity="1" d="M 10 58 Q 13 57 12 60 Q 9 61 10 58 Z "></path><path fill="rgb(254,254,254)" stroke="rgb(254,254,254)" stroke-width="1" opacity="1" d="M 12.5 61 L 13.5 63 L 12.5 61 Z "></path><path fill="rgb(123,109,125)" stroke="rgb(123,109,125)" stroke-width="1" opacity="1" d="M 16.5 5 L 19 9.5 L 18 9.5 L 16.5 5 Z "></path><path fill="rgb(123,109,125)" stroke="rgb(123,109,125)" stroke-width="1" opacity="1" d="M 61.5 26 L 64 26.5 L 61.5 27 L 61.5 26 Z "></path><path fill="rgb(123,109,125)" stroke="rgb(123,109,125)" stroke-width="1" opacity="1" d="M 17.5 30 L 18 45.5 L 17 45.5 L 17.5 30 Z "></path><path fill="rgb(123,109,125)" stroke="rgb(123,109,125)" stroke-width="1" opacity="1" d="M 69.5 31 L 68.5 33 L 69.5 31 Z "></path><path fill="rgb(123,109,125)" stroke="rgb(123,109,125)" stroke-width="1" opacity="1" d="M 66.5 35 L 62.5 40 L 66.5 35 Z "></path><path fill="rgb(123,109,125)" stroke="rgb(123,109,125)" stroke-width="1" opacity="1" d="M 47.5 40 L 45.5 43 L 47.5 40 Z "></path><path fill="rgb(123,109,125)" stroke="rgb(123,109,125)" stroke-width="1" opacity="1" d="M 57.5 41 L 55.5 44 L 57.5 41 Z "></path><path fill="rgb(123,109,125)" stroke="rgb(123,109,125)" stroke-width="1" opacity="1" d="M 60.5 41 L 55.5 47 L 60.5 41 Z "></path><path fill="rgb(123,109,125)" stroke="rgb(123,109,125)" stroke-width="1" opacity="1" d="M 42.5 44 L 41.5 46 L 42.5 44 Z "></path><path fill="rgb(123,109,125)" stroke="rgb(123,109,125)" stroke-width="1" opacity="1" d="M 46.5 44 L 47 46 L 45 45.5 L 46.5 44 Z "></path><path fill="rgb(123,109,125)" stroke="rgb(123,109,125)" stroke-width="1" opacity="1" d="M 34.5 45 L 32.5 48 L 34.5 45 Z "></path><path fill="rgb(123,109,125)" stroke="rgb(123,109,125)" stroke-width="1" opacity="1" d="M 53.5 45 L 52.5 47 L 53.5 45 Z "></path><path fill="rgb(123,109,125)" stroke="rgb(123,109,125)" stroke-width="1" opacity="1" d="M 49.5 46 L 48.5 48 L 49.5 46 Z "></path><path fill="rgb(123,109,125)" stroke="rgb(123,109,125)" stroke-width="1" opacity="1" d="M 49.5 49 L 52 49.5 Q 49.9 52.8 49.5 49 Z "></path><path fill="rgb(123,109,125)" stroke="rgb(123,109,125)" stroke-width="1" opacity="1" d="M 44.5 53 L 44 54.5 L 46.5 58 L 43 54.5 L 44.5 53 Z "></path><path fill="rgb(123,109,125)" stroke="rgb(123,109,125)" stroke-width="1" opacity="1" d="M 53.5 55 L 54 57.5 L 52 56.5 L 53.5 55 Z "></path><path fill="rgb(123,109,125)" stroke="rgb(123,109,125)" stroke-width="1" opacity="1" d="M 68.5 55 L 67.5 57 L 68.5 55 Z "></path><path fill="rgb(123,109,125)" stroke="rgb(123,109,125)" stroke-width="1" opacity="1" d="M 83.5 55 L 82.5 57 L 81 56.5 L 83.5 55 Z "></path><path fill="rgb(123,109,125)" stroke="rgb(123,109,125)" stroke-width="1" opacity="1" d="M 21 56 L 25.5 58 L 27 57.5 L 25.5 60 L 22 57.5 L 23 61.5 L 21 60.5 L 21 56 Z "></path><path fill="rgb(123,109,125)" stroke="rgb(123,109,125)" stroke-width="1" opacity="1" d="M 28.5 60 L 29 61.5 L 27 62.5 L 28.5 60 Z "></path><path fill="rgb(123,109,125)" stroke="rgb(123,109,125)" stroke-width="1" opacity="1" d="M 84 60 L 86 60.5 L 84.5 63 L 84 60 Z "></path><path fill="rgb(123,109,125)" stroke="rgb(123,109,125)" stroke-width="1" opacity="1" d="M 50.5 61 L 51.5 63 L 50.5 61 Z "></path><path fill="rgb(79,77,133)" stroke="rgb(79,77,133)" stroke-width="1" opacity="1" d="M 12.5 5 Q 16.3 4.3 17 6.5 L 29.5 34 L 31 33.5 Q 31.8 35.8 29.5 35 L 27 35.5 L 26.5 38 L 26 35.5 L 27 33 L 24 31.5 L 26 31.5 L 15 6 Q 11.7 6.8 12.5 5 Z "></path><path fill="rgb(79,77,133)" stroke="rgb(79,77,133)" stroke-width="1" opacity="1" d="M 45.5 5 L 49 6.5 L 50 8.5 L 50 38.5 L 47 40 L 47 7.5 Q 47 6.5 42.5 7 L 42.5 6 L 45.5 5 Z "></path><path fill="rgb(79,77,133)" stroke="rgb(79,77,133)" stroke-width="1" opacity="1" d="M 17.5 15 L 16.5 17 L 17.5 15 Z "></path><path fill="rgb(79,77,133)" stroke="rgb(79,77,133)" stroke-width="1" opacity="1" d="M 37.5 23 L 36.5 25 L 37.5 23 Z "></path><path fill="rgb(79,77,133)" stroke="rgb(79,77,133)" stroke-width="1" opacity="1" d="M 15.5 24 L 19 28.5 L 17 30.5 L 17 48 L 13 47.5 L 15 47 L 15.5 24 Z "></path><path fill="rgb(79,77,133)" stroke="rgb(79,77,133)" stroke-width="1" opacity="1" d="M 38 29 Q 41 27.8 40 31.5 L 42 40.5 L 40.5 43 L 39.5 33 L 35 44.5 L 31.5 48 L 30 47.5 L 33 44.5 L 38 29 Z "></path><path fill="rgb(79,77,133)" stroke="rgb(79,77,133)" stroke-width="1" opacity="1" d="M 20.5 30 L 21 32.5 L 20 32.5 L 20.5 30 Z "></path><path fill="rgb(79,77,133)" stroke="rgb(79,77,133)" stroke-width="1" opacity="1" d="M 24.5 42 L 27 45.5 L 26 45.5 L 24.5 42 Z "></path><path fill="rgb(79,77,133)" stroke="rgb(79,77,133)" stroke-width="1" opacity="1" d="M 48 42 Q 51.3 40.7 50 45.5 Q 49.3 48.8 44.5 48 L 44.5 47 L 47 45.5 L 48 42 Z "></path><path fill="rgb(79,77,133)" stroke="rgb(79,77,133)" stroke-width="1" opacity="1" d="M 65.5 55 L 68 55.5 L 64.5 57 L 65.5 55 Z "></path><path fill="rgb(79,77,133)" stroke="rgb(79,77,133)" stroke-width="1" opacity="1" d="M 80.5 55 L 84 56.5 L 82.5 56 L 79.5 57 L 80.5 55 Z "></path><path fill="rgb(79,77,133)" stroke="rgb(79,77,133)" stroke-width="1" opacity="1" d="M 22.5 57 L 24.5 60 L 22 59 L 22.5 57 Z "></path><path fill="rgb(79,77,133)" stroke="rgb(79,77,133)" stroke-width="1" opacity="1" d="M 27.5 57 L 28 61.5 L 27 61.5 L 26 58.5 L 27.5 57 Z "></path><path fill="rgb(79,77,133)" stroke="rgb(79,77,133)" stroke-width="1" opacity="1" d="M 48.5 58 L 49 59.5 L 47.5 63 L 46 59.5 L 48 59.5 L 48.5 58 Z "></path><path fill="rgb(79,77,133)" stroke="rgb(79,77,133)" stroke-width="1" opacity="1" d="M 64.5 58 L 67 59.5 L 63.5 60 L 64.5 58 Z "></path><path fill="rgb(79,77,133)" stroke="rgb(79,77,133)" stroke-width="1" opacity="1" d="M 79.5 58 L 82.5 59 L 84 58.5 L 84 60 L 80 60 L 80 62 L 84 62.5 L 80.5 63 Q 77.8 61.8 79.5 58 Z "></path><path fill="rgb(79,77,133)" stroke="rgb(79,77,133)" stroke-width="1" opacity="1" d="M 50 59 Q 53 57.8 52 61.5 L 50 60.5 L 50 59 Z "></path><path fill="rgb(79,77,133)" stroke="rgb(79,77,133)" stroke-width="1" opacity="1" d="M 64.5 61 L 69 62.5 L 64 63 L 64.5 61 Z "></path><path fill="rgb(220,211,213)" stroke="rgb(220,211,213)" stroke-width="1" opacity="1" d="M 11.5 4 L 14 4.5 L 11.5 5 L 11.5 4 Z "></path><path fill="rgb(220,211,213)" stroke="rgb(220,211,213)" stroke-width="1" opacity="1" d="M 49.5 5 L 50.5 7 L 49.5 5 Z "></path><path fill="rgb(220,211,213)" stroke="rgb(220,211,213)" stroke-width="1" opacity="1" d="M 8.5 6 L 9 45.5 L 8 45.5 L 8.5 6 Z "></path><path fill="rgb(220,211,213)" stroke="rgb(220,211,213)" stroke-width="1" opacity="1" d="M 39.5 6 L 40 7.5 L 38.5 10 L 38 8.5 L 39.5 6 Z "></path><path fill="rgb(220,211,213)" stroke="rgb(220,211,213)" stroke-width="1" opacity="1" d="M 36.5 13 L 37 15.5 L 35.5 18 L 35 16.5 L 36.5 13 Z "></path><path fill="rgb(220,211,213)" stroke="rgb(220,211,213)" stroke-width="1" opacity="1" d="M 63.5 27 L 65 29.5 L 64 29.5 L 63.5 27 Z "></path><path fill="rgb(220,211,213)" stroke="rgb(220,211,213)" stroke-width="1" opacity="1" d="M 55 28 L 58 28.5 L 55.5 30 L 55 28 Z "></path><path fill="rgb(220,211,213)" stroke="rgb(220,211,213)" stroke-width="1" opacity="1" d="M 56.5 31 L 58 31.5 L 56 32.5 Q 58.5 34 55 35.5 L 51.5 40 L 50 37.5 L 54 35 L 56.5 31 Z "></path><path fill="rgb(220,211,213)" stroke="rgb(220,211,213)" stroke-width="1" opacity="1" d="M 70.5 31 L 69.5 33 L 70.5 31 Z "></path><path fill="rgb(220,211,213)" stroke="rgb(220,211,213)" stroke-width="1" opacity="1" d="M 63.5 32 L 61.5 35 L 63.5 32 Z "></path><path fill="rgb(220,211,213)" stroke="rgb(220,211,213)" stroke-width="1" opacity="1" d="M 39.5 34 L 40 48 L 37.5 49 L 39 46.5 L 38 42.5 L 39 37.5 L 39 35.5 L 39.5 34 Z "></path><path fill="rgb(220,211,213)" stroke="rgb(220,211,213)" stroke-width="1" opacity="1" d="M 67.5 35 L 64.5 39 L 67.5 35 Z "></path><path fill="rgb(220,211,213)" stroke="rgb(220,211,213)" stroke-width="1" opacity="1" d="M 60.5 36 L 58.5 39 L 60.5 36 Z "></path><path fill="rgb(220,211,213)" stroke="rgb(220,211,213)" stroke-width="1" opacity="1" d="M 21.5 39 L 23 41.5 L 22 41.5 L 21.5 39 Z "></path><path fill="rgb(220,211,213)" stroke="rgb(220,211,213)" stroke-width="1" opacity="1" d="M 56.5 41 L 52.5 46 L 56.5 41 Z "></path><path fill="rgb(220,211,213)" stroke="rgb(220,211,213)" stroke-width="1" opacity="1" d="M 24.5 46 L 25.5 48 L 24.5 46 Z "></path><path fill="rgb(220,211,213)" stroke="rgb(220,211,213)" stroke-width="1" opacity="1" d="M 28.5 48 L 32 48.5 L 28.5 49 L 28.5 48 Z "></path><path fill="rgb(220,211,213)" stroke="rgb(220,211,213)" stroke-width="1" opacity="1" d="M 42.5 48 L 41.5 50 L 42.5 48 Z "></path><path fill="rgb(220,211,213)" stroke="rgb(220,211,213)" stroke-width="1" opacity="1" d="M 34.5 50 L 33.5 52 L 34.5 50 Z "></path><path fill="rgb(220,211,213)" stroke="rgb(220,211,213)" stroke-width="1" opacity="1" d="M 51.5 50 L 50.5 52 L 51.5 50 Z "></path><path fill="rgb(220,211,213)" stroke="rgb(220,211,213)" stroke-width="1" opacity="1" d="M 45.5 51 L 44.5 53 L 45.5 51 Z "></path><path fill="rgb(220,211,213)" stroke="rgb(220,211,213)" stroke-width="1" opacity="1" d="M 35.5 53 L 34.5 55 L 35.5 53 Z "></path><path fill="rgb(220,211,213)" stroke="rgb(220,211,213)" stroke-width="1" opacity="1" d="M 21.5 54 L 23.5 57 Q 21.8 53.9 20 55.5 L 21.5 54 Z "></path><path fill="rgb(220,211,213)" stroke="rgb(220,211,213)" stroke-width="1" opacity="1" d="M 41.5 54 L 39.5 57 L 41.5 54 Z "></path><path fill="rgb(220,211,213)" stroke="rgb(220,211,213)" stroke-width="1" opacity="1" d="M 63.5 55 L 62.5 57 L 63.5 55 Z "></path><path fill="rgb(220,211,213)" stroke="rgb(220,211,213)" stroke-width="1" opacity="1" d="M 70.5 55 L 69.5 57 L 70.5 55 Z "></path><path fill="rgb(220,211,213)" stroke="rgb(220,211,213)" stroke-width="1" opacity="1" d="M 78.5 57 L 78 58.5 L 77.5 60 L 77 58.5 L 78.5 57 Z "></path><path fill="rgb(220,211,213)" stroke="rgb(220,211,213)" stroke-width="1" opacity="1" d="M 35.5 58 L 35.5 61 L 33 60.5 L 35.5 58 Z "></path><path fill="rgb(220,211,213)" stroke="rgb(220,211,213)" stroke-width="1" opacity="1" d="M 38 58 L 40 58.5 L 38 59.5 L 38 58 Z "></path><path fill="rgb(220,211,213)" stroke="rgb(220,211,213)" stroke-width="1" opacity="1" d="M 26.5 60 L 28 63.5 L 26 62.5 L 26.5 60 Z "></path><path fill="rgb(220,211,213)" stroke="rgb(220,211,213)" stroke-width="1" opacity="1" d="M 49.5 60 L 48.5 62 L 49.5 60 Z "></path><path fill="rgb(220,211,213)" stroke="rgb(220,211,213)" stroke-width="1" opacity="1" d="M 62.5 60 L 63 62.5 L 62 62.5 L 62.5 60 Z "></path><path fill="rgb(220,211,213)" stroke="rgb(220,211,213)" stroke-width="1" opacity="1" d="M 65.5 60 L 66.5 62 L 65.5 60 Z "></path><path fill="rgb(220,211,213)" stroke="rgb(220,211,213)" stroke-width="1" opacity="1" d="M 83.5 60 L 82.5 62 L 83.5 60 Z "></path><path fill="rgb(220,211,213)" stroke="rgb(220,211,213)" stroke-width="1" opacity="1" d="M 69.5 61 L 70.5 63 L 69.5 61 Z "></path><path fill="rgb(252,251,240)" stroke="rgb(252,251,240)" stroke-width="1" opacity="1" d="M 16 0 L 18 0.5 L 16 1.5 L 16 0 Z "></path><path fill="rgb(252,251,240)" stroke="rgb(252,251,240)" stroke-width="1" opacity="1" d="M 28.5 24 L 30 27.5 L 28 26.5 L 28.5 24 Z "></path><path fill="rgb(252,251,240)" stroke="rgb(252,251,240)" stroke-width="1" opacity="1" d="M 18.5 37 L 20 39.5 L 18 38.5 L 18.5 37 Z "></path><path fill="rgb(252,251,240)" stroke="rgb(252,251,240)" stroke-width="1" opacity="1" d="M 53.5 38 L 52.5 40 L 53.5 38 Z "></path><path fill="rgb(252,251,240)" stroke="rgb(252,251,240)" stroke-width="1" opacity="1" d="M 21.5 44 Q 23.8 44.8 23 48.5 L 22 48.5 Q 22.7 45.9 20 47 L 19.5 49 L 19 46 Q 21.8 47 21.5 44 Z "></path><path fill="rgb(252,251,240)" stroke="rgb(252,251,240)" stroke-width="1" opacity="1" d="M 31.5 49 L 32 51.5 L 31 51.5 L 31.5 49 Z "></path><path fill="rgb(252,251,240)" stroke="rgb(252,251,240)" stroke-width="1" opacity="1" d="M 34.5 49 L 33.5 51 L 34.5 49 Z "></path><path fill="rgb(252,251,240)" stroke="rgb(252,251,240)" stroke-width="1" opacity="1" d="M 21.5 50 L 20 52.5 L 19.5 55 L 19 52.5 L 21.5 50 Z "></path><path fill="rgb(252,251,240)" stroke="rgb(252,251,240)" stroke-width="1" opacity="1" d="M 26.5 50 L 29 50.5 L 26.5 51 L 26.5 50 Z "></path><path fill="rgb(252,251,240)" stroke="rgb(252,251,240)" stroke-width="1" opacity="1" d="M 16.5 51 L 16 52.5 L 13.5 56 L 14 54.5 L 16.5 51 Z "></path><path fill="rgb(252,251,240)" stroke="rgb(252,251,240)" stroke-width="1" opacity="1" d="M 23.5 51 L 22.5 53 L 23.5 51 Z "></path><path fill="rgb(252,251,240)" stroke="rgb(252,251,240)" stroke-width="1" opacity="1" d="M 44.5 51 L 43.5 53 L 44.5 51 Z "></path><path fill="rgb(252,251,240)" stroke="rgb(252,251,240)" stroke-width="1" opacity="1" d="M 64.5 52 L 65.5 54 L 64.5 52 Z "></path><path fill="rgb(252,251,240)" stroke="rgb(252,251,240)" stroke-width="1" opacity="1" d="M 27.5 53 L 26.5 55 L 23.5 56 L 24.5 54 L 27.5 53 Z "></path><path fill="rgb(252,251,240)" stroke="rgb(252,251,240)" stroke-width="1" opacity="1" d="M 39.5 54 L 41 54.5 L 37.5 57 L 36.5 55 Q 38 57.5 39.5 54 Z "></path><path fill="rgb(252,251,240)" stroke="rgb(252,251,240)" stroke-width="1" opacity="1" d="M 34.5 55 L 35 57 Q 31.6 56.3 30.5 59 L 32.5 56 L 34.5 55 Z "></path><path fill="rgb(252,251,240)" stroke="rgb(252,251,240)" stroke-width="1" opacity="1" d="M 12.5 57 L 14 62 Q 16.7 60.9 16 63.5 L 13 61.5 L 12.5 57 Z "></path><path fill="rgb(252,251,240)" stroke="rgb(252,251,240)" stroke-width="1" opacity="1" d="M 29 60 Q 32 58.8 31 62.5 L 29 61.5 L 29 60 Z "></path><path fill="rgb(252,251,240)" stroke="rgb(252,251,240)" stroke-width="1" opacity="1" d="M 17.5 62 L 20 63.5 L 18.5 64 L 17.5 62 Z "></path><path fill="rgb(149,66,105)" stroke="rgb(149,66,105)" stroke-width="1" opacity="1" d="M 66.5 23 L 71 24 L 70 30.5 L 62 41 L 39.5 58 L 40.5 56 L 45 53.5 Q 44.3 51.3 46.5 52 L 50 50 L 51.5 47 L 58 41.5 L 65 31.5 L 65 27.5 L 61.5 26 L 60 26.5 L 66.5 23 Z "></path><path fill="rgb(149,66,105)" stroke="rgb(149,66,105)" stroke-width="1" opacity="1" d="M 49.5 39 L 50 42 L 48 41.5 L 49.5 39 Z "></path><path fill="rgb(149,66,105)" stroke="rgb(149,66,105)" stroke-width="1" opacity="1" d="M 44.5 43 L 43.5 45 L 44.5 43 Z "></path><path fill="rgb(255,255,255)" stroke="rgb(255,255,255)" stroke-width="1" opacity="1" d="M 0 0 L 4 0.5 L 4 72 L 0 71.5 L 0 0 Z "></path><path fill="rgb(255,255,255)" stroke="rgb(255,255,255)" stroke-width="1" opacity="1" d="M 12.5 0 L 13 1.5 L 9.5 4 L 9.5 1 L 12.5 0 Z "></path><path fill="rgb(255,255,255)" stroke="rgb(255,255,255)" stroke-width="1" opacity="1" d="M 22.5 0 L 24 3.5 L 23 3.5 L 22.5 0 Z "></path><path fill="rgb(255,255,255)" stroke="rgb(255,255,255)" stroke-width="1" opacity="1" d="M 40.5 0 L 48.5 2 L 49.5 0 L 50 4 Q 53 3 52 6 L 48 3.5 Q 48.9 0.1 43.5 2 L 40.5 1 L 40.5 0 Z "></path><path fill="rgb(255,255,255)" stroke="rgb(255,255,255)" stroke-width="1" opacity="1" d="M 54.5 0 L 56 2.5 L 53.5 4 L 52.5 2 Q 55 2.7 54.5 0 Z "></path><path fill="rgb(255,255,255)" stroke="rgb(255,255,255)" stroke-width="1" opacity="1" d="M 91.5 0 L 92 15.5 L 91 15.5 L 91.5 0 Z "></path><path fill="rgb(255,255,255)" stroke="rgb(255,255,255)" stroke-width="1" opacity="1" d="M 17 1 Q 20.8 0.3 22 3.5 L 21.5 6 L 20 5.5 L 23 16 Q 26.8 15 28 17.5 L 29 22.5 L 28 22.5 L 25.5 17 L 23.5 18 L 19 6.5 L 16 3.5 L 17 1 Z M 19 2 L 18 4 L 20 5 L 19 2 Z "></path><path fill="rgb(255,255,255)" stroke="rgb(255,255,255)" stroke-width="1" opacity="1" d="M 38.5 3 L 41 4.5 L 38 5.5 L 37.5 7 Q 34 5 38.5 3 Z "></path><path fill="rgb(255,255,255)" stroke="rgb(255,255,255)" stroke-width="1" opacity="1" d="M 23.5 6 L 24 7.5 L 22 8.5 L 23.5 6 Z "></path><path fill="rgb(255,255,255)" stroke="rgb(255,255,255)" stroke-width="1" opacity="1" d="M 33.5 6 L 35 8.5 L 33 9.5 L 32 7.5 L 33.5 6 Z "></path><path fill="rgb(255,255,255)" stroke="rgb(255,255,255)" stroke-width="1" opacity="1" d="M 51 7 L 54.5 8 L 56 7.5 L 54.5 16 L 54 8 L 52 8.5 L 52 15.5 L 51 15.5 L 51 7 Z "></path><path fill="rgb(255,255,255)" stroke="rgb(255,255,255)" stroke-width="1" opacity="1" d="M 37.5 8 L 38 9.5 Q 35.3 10.8 35.5 15 L 35 11.5 L 37.5 8 Z "></path><path fill="rgb(255,255,255)" stroke="rgb(255,255,255)" stroke-width="1" opacity="1" d="M 32.5 11 L 34 19.5 L 32 18.5 L 31.5 17 L 31 20.5 L 31 22.5 L 30.5 24 L 30 17.5 Q 33.1 16.1 32.5 11 Z "></path><path fill="rgb(255,255,255)" stroke="rgb(255,255,255)" stroke-width="1" opacity="1" d="M 69.5 16 Q 72.1 15.3 71 18 L 67 17.5 L 69.5 16 Z "></path><path fill="rgb(255,255,255)" stroke="rgb(255,255,255)" stroke-width="1" opacity="1" d="M 80 16 L 88 16 L 88 20 L 80 20 L 80 16 Z "></path><path fill="rgb(255,255,255)" stroke="rgb(255,255,255)" stroke-width="1" opacity="1" d="M 24.5 19 L 30 29.5 L 28 28.5 L 24 20.5 L 24.5 19 Z "></path><path fill="rgb(255,255,255)" stroke="rgb(255,255,255)" stroke-width="1" opacity="1" d="M 56.5 19 L 57.5 21 Q 54.7 21.7 56.5 19 Z "></path><path fill="rgb(255,255,255)" stroke="rgb(255,255,255)" stroke-width="1" opacity="1" d="M 67.5 19 L 72 19.5 L 67.5 20 L 67.5 19 Z "></path><path fill="rgb(255,255,255)" stroke="rgb(255,255,255)" stroke-width="1" opacity="1" d="M 64 21 L 69 21.5 L 64 23 L 64 21 Z "></path><path fill="rgb(255,255,255)" stroke="rgb(255,255,255)" stroke-width="1" opacity="1" d="M 58.5 24 L 61 24.5 L 56.5 27 L 56 25 L 58.5 24 Z "></path><path fill="rgb(255,255,255)" stroke="rgb(255,255,255)" stroke-width="1" opacity="1" d="M 91.5 24 L 92 71.5 L 91 71.5 L 91.5 24 Z "></path><path fill="rgb(255,255,255)" stroke="rgb(255,255,255)" stroke-width="1" opacity="1" d="M 51 25 Q 53.7 23.9 53 26.5 L 51 27.5 L 51 25 Z "></path><path fill="rgb(255,255,255)" stroke="rgb(255,255,255)" stroke-width="1" opacity="1" d="M 61.5 27 L 63 27.5 L 59.5 29 L 59.5 28 L 61.5 27 Z "></path><path fill="rgb(255,255,255)" stroke="rgb(255,255,255)" stroke-width="1" opacity="1" d="M 71.5 31 L 72 32.5 L 68.5 37 L 68 35.5 L 71.5 31 Z "></path><path fill="rgb(255,255,255)" stroke="rgb(255,255,255)" stroke-width="1" opacity="1" d="M 60.5 33 L 59.5 35 L 60.5 33 Z "></path><path fill="rgb(255,255,255)" stroke="rgb(255,255,255)" stroke-width="1" opacity="1" d="M 20.5 39 L 20 40.5 L 19.5 45 L 19 40.5 L 20.5 39 Z "></path><path fill="rgb(255,255,255)" stroke="rgb(255,255,255)" stroke-width="1" opacity="1" d="M 37.5 41 L 38 42.5 L 36 43.5 L 37.5 41 Z "></path><path fill="rgb(255,255,255)" stroke="rgb(255,255,255)" stroke-width="1" opacity="1" d="M 63.5 41 L 64 42.5 L 54.5 50 L 54.5 49 L 63.5 41 Z "></path><path fill="rgb(255,255,255)" stroke="rgb(255,255,255)" stroke-width="1" opacity="1" d="M 35.5 46 L 34.5 48 L 35.5 46 Z "></path><path fill="rgb(255,255,255)" stroke="rgb(255,255,255)" stroke-width="1" opacity="1" d="M 77.5 48 L 79.5 49 L 81.5 49 L 84 49.5 L 80 50.5 L 88 52.5 L 85.5 53 L 79 52 Q 80.5 48.3 77.5 49 L 77.5 48 Z "></path><path fill="rgb(255,255,255)" stroke="rgb(255,255,255)" stroke-width="1" opacity="1" d="M 9.5 49 L 13 50.5 L 11.5 51 L 9.5 49 Z "></path><path fill="rgb(255,255,255)" stroke="rgb(255,255,255)" stroke-width="1" opacity="1" d="M 25.5 49 L 28 52.5 L 26.5 53 Q 24 52 25.5 49 Z "></path><path fill="rgb(255,255,255)" stroke="rgb(255,255,255)" stroke-width="1" opacity="1" d="M 59.5 49 Q 62.1 48.3 61 51 L 57 53 L 59.5 49 Z "></path><path fill="rgb(255,255,255)" stroke="rgb(255,255,255)" stroke-width="1" opacity="1" d="M 75.5 49 L 76 51 L 70.5 53 L 70.5 52 L 72 51.5 L 67.5 51 L 66.5 53 L 69 53.5 L 66.5 54 L 64.5 51 L 75.5 49 Z "></path><path fill="rgb(255,255,255)" stroke="rgb(255,255,255)" stroke-width="1" opacity="1" d="M 85.5 49 L 88 49.5 L 85.5 50 L 85.5 49 Z "></path><path fill="rgb(255,255,255)" stroke="rgb(255,255,255)" stroke-width="1" opacity="1" d="M 22.5 50 L 23 52 Q 20.3 50.9 21 53.5 L 20 53.5 L 22.5 50 Z "></path><path fill="rgb(255,255,255)" stroke="rgb(255,255,255)" stroke-width="1" opacity="1" d="M 42.5 50 L 46 50.5 L 42.5 51 L 42.5 50 Z "></path><path fill="rgb(255,255,255)" stroke="rgb(255,255,255)" stroke-width="1" opacity="1" d="M 51.5 51 L 49 54.5 L 48.5 56 L 48 54.5 L 51.5 51 Z "></path><path fill="rgb(255,255,255)" stroke="rgb(255,255,255)" stroke-width="1" opacity="1" d="M 55.5 51 L 56 52.5 L 55.5 55 L 53.5 54 L 51.5 55 L 51.5 54 L 55.5 51 Z "></path><path fill="rgb(255,255,255)" stroke="rgb(255,255,255)" stroke-width="1" opacity="1" d="M 9.5 52 L 12 52.5 L 9.5 53 L 9.5 52 Z "></path><path fill="rgb(255,255,255)" stroke="rgb(255,255,255)" stroke-width="1" opacity="1" d="M 39.5 52 L 40.5 54 L 39 53.5 L 38.5 55 L 37.5 53 L 39.5 52 Z "></path><path fill="rgb(255,255,255)" stroke="rgb(255,255,255)" stroke-width="1" opacity="1" d="M 62.5 52 L 63 53.5 L 60.5 55 L 62.5 52 Z "></path><path fill="rgb(255,255,255)" stroke="rgb(255,255,255)" stroke-width="1" opacity="1" d="M 75.5 52 L 77 52.5 L 73.5 54 L 73.5 53 L 75.5 52 Z "></path><path fill="rgb(255,255,255)" stroke="rgb(255,255,255)" stroke-width="1" opacity="1" d="M 78.5 53 L 80 53.5 L 76.5 56 L 78.5 53 Z "></path><path fill="rgb(255,255,255)" stroke="rgb(255,255,255)" stroke-width="1" opacity="1" d="M 81.5 53 L 87 54 L 86.5 57 L 86 55 L 81.5 54 L 81.5 53 Z "></path><path fill="rgb(255,255,255)" stroke="rgb(255,255,255)" stroke-width="1" opacity="1" d="M 8 54 L 11 54.5 L 9 55 L 8.5 58 L 8 54 Z "></path><path fill="rgb(255,255,255)" stroke="rgb(255,255,255)" stroke-width="1" opacity="1" d="M 70.5 54 L 75 56.5 L 71.5 59 L 71 56.5 L 70.5 54 Z "></path><path fill="rgb(255,255,255)" stroke="rgb(255,255,255)" stroke-width="1" opacity="1" d="M 57.5 55 L 58.5 57 L 57 56.5 Q 58.9 61.9 55.5 61 L 54 58.5 L 57.5 55 Z "></path><path fill="rgb(255,255,255)" stroke="rgb(255,255,255)" stroke-width="1" opacity="1" d="M 35.5 57 L 34.5 59 L 35.5 57 Z "></path><path fill="rgb(255,255,255)" stroke="rgb(255,255,255)" stroke-width="1" opacity="1" d="M 76.5 57 L 78 57.5 L 76 58 L 78 61.5 L 76 62 L 75.5 60 L 73 61.5 L 76.5 57 Z "></path><path fill="rgb(255,255,255)" stroke="rgb(255,255,255)" stroke-width="1" opacity="1" d="M 42.5 58 L 45 59.5 L 43.5 59 L 41.5 60 L 42.5 58 Z "></path><path fill="rgb(255,255,255)" stroke="rgb(255,255,255)" stroke-width="1" opacity="1" d="M 58.5 59 L 62 60 Q 63.1 62.7 60.5 62 L 58 63 L 59 60.5 L 58.5 59 Z "></path><path fill="rgb(255,255,255)" stroke="rgb(255,255,255)" stroke-width="1" opacity="1" d="M 37.5 60 L 39 60.5 L 37.5 64 L 37.5 62 L 36 61.5 L 37.5 60 Z "></path><path fill="rgb(255,255,255)" stroke="rgb(255,255,255)" stroke-width="1" opacity="1" d="M 68.5 60 L 72 61.5 L 70.5 61 Q 67.5 61.5 68.5 60 Z "></path><path fill="rgb(255,255,255)" stroke="rgb(255,255,255)" stroke-width="1" opacity="1" d="M 87.5 60 L 88 61.5 L 87.5 64 Q 84.7 62.8 87 61.5 L 87.5 60 Z "></path><path fill="rgb(255,255,255)" stroke="rgb(255,255,255)" stroke-width="1" opacity="1" d="M 53.5 61 L 54 62.5 L 52 63.5 L 53.5 61 Z "></path><path fill="rgb(255,255,255)" stroke="rgb(255,255,255)" stroke-width="1" opacity="1" d="M 12.5 62 L 15 63.5 L 12 64 L 12.5 62 Z "></path><path fill="rgb(255,255,255)" stroke="rgb(255,255,255)" stroke-width="1" opacity="1" d="M 34.5 62 L 35.5 64 L 34.5 62 Z "></path><path fill="rgb(255,255,255)" stroke="rgb(255,255,255)" stroke-width="1" opacity="1" d="M 40.5 62 L 43 63.5 L 41.5 64 L 40.5 62 Z "></path><path fill="rgb(242,242,237)" stroke="rgb(242,242,237)" stroke-width="1" opacity="1" d="M 20.5 0 L 22 2.5 L 21 2.5 L 20.5 0 Z "></path><path fill="rgb(242,242,237)" stroke="rgb(242,242,237)" stroke-width="1" opacity="1" d="M 44.5 4 L 48 4.5 L 44.5 5 L 44.5 4 Z "></path><path fill="rgb(242,242,237)" stroke="rgb(242,242,237)" stroke-width="1" opacity="1" d="M 39.5 5 L 39 6.5 L 38.5 8 L 38 6.5 L 39.5 5 Z "></path><path fill="rgb(242,242,237)" stroke="rgb(242,242,237)" stroke-width="1" opacity="1" d="M 53.5 27 L 56 27.5 L 55 29.5 L 55.5 31 L 52 29.5 L 53.5 27 Z "></path><path fill="rgb(242,242,237)" stroke="rgb(242,242,237)" stroke-width="1" opacity="1" d="M 57.5 29 L 60 32.5 L 57 32.5 L 57 30.5 L 57.5 29 Z "></path><path fill="rgb(242,242,237)" stroke="rgb(242,242,237)" stroke-width="1" opacity="1" d="M 63.5 30 L 64 32 L 62 31.5 L 63.5 30 Z "></path><path fill="rgb(242,242,237)" stroke="rgb(242,242,237)" stroke-width="1" opacity="1" d="M 69.5 33 L 68.5 35 L 69.5 33 Z "></path><path fill="rgb(242,242,237)" stroke="rgb(242,242,237)" stroke-width="1" opacity="1" d="M 57.5 35 L 59.5 36 L 61 35.5 Q 59.8 38.3 58.5 36 L 57.5 35 Z "></path><path fill="rgb(242,242,237)" stroke="rgb(242,242,237)" stroke-width="1" opacity="1" d="M 18.5 39 L 19 46.5 L 18 46.5 L 18.5 39 Z "></path><path fill="rgb(242,242,237)" stroke="rgb(242,242,237)" stroke-width="1" opacity="1" d="M 50.5 40 L 53 41 L 54 43.5 L 52 44.5 Q 54.3 43.3 51.5 42 L 50.5 46 L 50.5 40 Z "></path><path fill="rgb(242,242,237)" stroke="rgb(242,242,237)" stroke-width="1" opacity="1" d="M 38.5 43 L 37.5 45 L 38.5 43 Z "></path><path fill="rgb(242,242,237)" stroke="rgb(242,242,237)" stroke-width="1" opacity="1" d="M 58.5 45 L 57.5 47 L 58.5 45 Z "></path><path fill="rgb(242,242,237)" stroke="rgb(242,242,237)" stroke-width="1" opacity="1" d="M 20 47 Q 23 45.8 22 49.5 L 19 51.5 L 18.5 50 L 17 50.5 Q 16.2 47.5 20 49 L 20 47 Z "></path><path fill="rgb(242,242,237)" stroke="rgb(242,242,237)" stroke-width="1" opacity="1" d="M 55.5 47 L 54.5 50 L 56 50.5 L 54.5 51 Q 51 49 55.5 47 Z "></path><path fill="rgb(242,242,237)" stroke="rgb(242,242,237)" stroke-width="1" opacity="1" d="M 36.5 48 L 35.5 50 L 36.5 48 Z "></path><path fill="rgb(242,242,237)" stroke="rgb(242,242,237)" stroke-width="1" opacity="1" d="M 47.5 48 L 47 49.5 L 46.5 51 L 46 49.5 L 47.5 48 Z "></path><path fill="rgb(242,242,237)" stroke="rgb(242,242,237)" stroke-width="1" opacity="1" d="M 40.5 50 Q 42.8 49.3 42 51.5 L 39 51.5 L 40.5 50 Z "></path><path fill="rgb(242,242,237)" stroke="rgb(242,242,237)" stroke-width="1" opacity="1" d="M 15.5 51 L 16.5 53 L 15.5 51 Z "></path><path fill="rgb(242,242,237)" stroke="rgb(242,242,237)" stroke-width="1" opacity="1" d="M 30.5 52 L 29.5 54 L 28 53.5 L 30.5 52 Z "></path><path fill="rgb(242,242,237)" stroke="rgb(242,242,237)" stroke-width="1" opacity="1" d="M 37.5 52 L 35.5 55 L 37.5 52 Z "></path><path fill="rgb(242,242,237)" stroke="rgb(242,242,237)" stroke-width="1" opacity="1" d="M 52.5 52 L 51.5 54 L 52.5 52 Z "></path><path fill="rgb(242,242,237)" stroke="rgb(242,242,237)" stroke-width="1" opacity="1" d="M 55.5 53 L 56 55.5 L 54.5 57 L 54.5 55 L 53 54.5 L 55.5 53 Z "></path><path fill="rgb(242,242,237)" stroke="rgb(242,242,237)" stroke-width="1" opacity="1" d="M 64.5 53 L 62.5 56 L 64.5 53 Z "></path><path fill="rgb(242,242,237)" stroke="rgb(242,242,237)" stroke-width="1" opacity="1" d="M 20.5 54 L 19.5 56 L 20.5 54 Z "></path><path fill="rgb(242,242,237)" stroke="rgb(242,242,237)" stroke-width="1" opacity="1" d="M 14.5 55 L 14 56.5 L 13.5 59 L 13 56.5 L 14.5 55 Z "></path><path fill="rgb(242,242,237)" stroke="rgb(242,242,237)" stroke-width="1" opacity="1" d="M 37.5 55 Q 40.5 56.5 37.5 58 L 35 56.5 L 37.5 55 Z "></path><path fill="rgb(242,242,237)" stroke="rgb(242,242,237)" stroke-width="1" opacity="1" d="M 49.5 55 L 47.5 58 L 49.5 55 Z "></path><path fill="rgb(242,242,237)" stroke="rgb(242,242,237)" stroke-width="1" opacity="1" d="M 31.5 56 L 34 57.5 L 32.5 58 L 30 57.5 L 31.5 56 Z "></path><path fill="rgb(242,242,237)" stroke="rgb(242,242,237)" stroke-width="1" opacity="1" d="M 62.5 57 L 62 58.5 L 61.5 60 L 61 58.5 L 62.5 57 Z "></path><path fill="rgb(242,242,237)" stroke="rgb(242,242,237)" stroke-width="1" opacity="1" d="M 68.5 58 L 69.5 60 L 68.5 58 Z "></path><path fill="rgb(242,242,237)" stroke="rgb(242,242,237)" stroke-width="1" opacity="1" d="M 33.5 59 L 33.5 61 L 35 61.5 L 33.5 62 Q 30.5 60.5 33.5 59 Z "></path><path fill="rgb(242,242,237)" stroke="rgb(242,242,237)" stroke-width="1" opacity="1" d="M 14.5 60 L 16.5 63 L 14 62 L 14.5 60 Z "></path><path fill="rgb(242,242,237)" stroke="rgb(242,242,237)" stroke-width="1" opacity="1" d="M 23.5 60 L 24.5 63 L 26 62.5 Q 24.5 65.5 23 62.5 L 23.5 60 Z "></path><path fill="rgb(238,199,63)" stroke="rgb(238,199,63)" stroke-width="1" opacity="1" d="M 48.5 40 L 48 41.5 L 39.5 51 L 29.5 57 L 26.5 56 L 24 57.5 L 25.5 55 L 33.5 52 L 48.5 40 Z "></path><path fill="rgb(238,199,63)" stroke="rgb(238,199,63)" stroke-width="1" opacity="1" d="M 18.5 50 L 19 56 L 21 56 L 21 62 Q 15.5 63.3 14 59.5 L 14 56.5 L 18.5 50 Z "></path><path fill="rgb(179,163,178)" stroke="rgb(179,163,178)" stroke-width="1" opacity="1" d="M 9 5 L 11 5.5 L 9 6.5 L 9 5 Z "></path><path fill="rgb(179,163,178)" stroke="rgb(179,163,178)" stroke-width="1" opacity="1" d="M 38.5 10 L 39 11.5 L 37.5 14 L 37 12.5 L 38.5 10 Z "></path><path fill="rgb(179,163,178)" stroke="rgb(179,163,178)" stroke-width="1" opacity="1" d="M 70.5 23 L 71.5 25 L 70.5 23 Z "></path><path fill="rgb(179,163,178)" stroke="rgb(179,163,178)" stroke-width="1" opacity="1" d="M 58.5 26 L 59.5 28 L 56 27.5 L 58.5 26 Z "></path><path fill="rgb(179,163,178)" stroke="rgb(179,163,178)" stroke-width="1" opacity="1" d="M 18.5 30 L 20 33.5 L 19 33.5 L 18.5 30 Z "></path><path fill="rgb(179,163,178)" stroke="rgb(179,163,178)" stroke-width="1" opacity="1" d="M 68.5 33 L 67.5 35 L 68.5 33 Z "></path><path fill="rgb(179,163,178)" stroke="rgb(179,163,178)" stroke-width="1" opacity="1" d="M 62.5 34 L 61.5 36 L 62.5 34 Z "></path><path fill="rgb(179,163,178)" stroke="rgb(179,163,178)" stroke-width="1" opacity="1" d="M 60.5 37 L 57.5 41 L 60.5 37 Z "></path><path fill="rgb(179,163,178)" stroke="rgb(179,163,178)" stroke-width="1" opacity="1" d="M 63.5 39 L 61.5 42 L 63.5 39 Z "></path><path fill="rgb(179,163,178)" stroke="rgb(179,163,178)" stroke-width="1" opacity="1" d="M 24.5 45 L 26.5 48 L 24.5 45 Z "></path><path fill="rgb(179,163,178)" stroke="rgb(179,163,178)" stroke-width="1" opacity="1" d="M 49.5 47 L 50 48.5 L 46 51.5 L 49.5 47 Z "></path><path fill="rgb(179,163,178)" stroke="rgb(179,163,178)" stroke-width="1" opacity="1" d="M 54.5 47 L 52.5 50 L 54.5 47 Z "></path><path fill="rgb(179,163,178)" stroke="rgb(179,163,178)" stroke-width="1" opacity="1" d="M 12.5 48 L 16 48.5 L 12.5 49 L 12.5 48 Z "></path><path fill="rgb(179,163,178)" stroke="rgb(179,163,178)" stroke-width="1" opacity="1" d="M 43.5 48 L 47 48.5 L 43.5 49 L 43.5 48 Z "></path><path fill="rgb(179,163,178)" stroke="rgb(179,163,178)" stroke-width="1" opacity="1" d="M 49.5 51 L 48.5 53 L 49.5 51 Z "></path><path fill="rgb(179,163,178)" stroke="rgb(179,163,178)" stroke-width="1" opacity="1" d="M 43.5 53 L 42.5 57 Q 39 55 43.5 53 Z "></path><path fill="rgb(179,163,178)" stroke="rgb(179,163,178)" stroke-width="1" opacity="1" d="M 46.5 53 L 46 54.5 L 45.5 56 L 45 54.5 L 46.5 53 Z "></path><path fill="rgb(179,163,178)" stroke="rgb(179,163,178)" stroke-width="1" opacity="1" d="M 69.5 55 L 68.5 57 L 69.5 55 Z "></path><path fill="rgb(179,163,178)" stroke="rgb(179,163,178)" stroke-width="1" opacity="1" d="M 26.5 56 L 25.5 58 L 26.5 56 Z "></path><path fill="rgb(179,163,178)" stroke="rgb(179,163,178)" stroke-width="1" opacity="1" d="M 63.5 56 L 64 57.5 L 62.5 60 L 62 58.5 L 63.5 56 Z "></path><path fill="rgb(179,163,178)" stroke="rgb(179,163,178)" stroke-width="1" opacity="1" d="M 38.5 57 L 37.5 59 L 35.5 60 L 36.5 58 L 38.5 57 Z "></path><path fill="rgb(179,163,178)" stroke="rgb(179,163,178)" stroke-width="1" opacity="1" d="M 83.5 57 L 84.5 59 L 83.5 57 Z "></path><path fill="rgb(179,163,178)" stroke="rgb(179,163,178)" stroke-width="1" opacity="1" d="M 50.5 58 L 52 58.5 L 49.5 60 L 50.5 58 Z "></path><path fill="rgb(179,163,178)" stroke="rgb(179,163,178)" stroke-width="1" opacity="1" d="M 65.5 58 L 68 58.5 L 65.5 59 L 65.5 58 Z "></path></svg>